# xmcd CD database file
#
# Track frame offsets:
#	150
#	15160
#	30718
#	50122
#	75065
#	96895
#	116730
#	135215
#	144618
#	164974
#	180003
#	201752
#	221045
#	239423
#	257938
#	277233
#
# Disc length: 3939 seconds
#
# Revision: 0
# Processed by: cddbd v1.5.2PL0 Copyright (c) Steve Scherf et al.
# Submitted via: CDex 1.70beta2
#
DISCID=e10f6110
DTITLE=Various Artist - Lo mejor de la Republica Dominicana
DYEAR=2002
DGENRE=Merengue
TTITLE0=01 - Vida - Hotel Amsa marina
TTITLE1=02 - Vida(ingles) - Hotel Amsu marina
TTITLE2=03 - El Arenque - Amarfi
TTITLE3=04 - Gonzando hasta Manana - Andy Martinez
TTITLE4=05 - Mujeriegos somos - Kinito Mendez 
TTITLE5=06 - Apagame la vela - La banda chula
TTITLE6=07 - Corazon equivocado - La banda gora
TTITLE7=08 - La bomba - Azul azul
TTITLE8=09 - Megusta chuleta - Tono rosario
TTITLE9=10 - Esto e pa hoy - El mambo de chala
TTITLE10=11 - Se nos perdio el amor - Gran combo
TTITLE11=12 - Ya la agarro bajando - Gilberto santa rosa
TTITLE12=13 - Guitarra - Yoskar
TTITLE13=14 - Dos loxos - Monchi y alexandra
TTITLE14=15 - Aventura - Obsecion
TTITLE15=16 - Cami separada - Yoskar sarante
EXTD=YEAR: 2002
EXTT0=
EXTT1=
EXTT2=
EXTT3=
EXTT4=
EXTT5=
EXTT6=
EXTT7=
EXTT8=
EXTT9=
EXTT10=
EXTT11=
EXTT12=
EXTT13=
EXTT14=
EXTT15=
PLAYORDER=
